<svg version="1.1" viewBox="0.0 0.0 384.0 384.0" fill="none" stroke="none" stroke-linecap="square" stroke-miterlimit="10" xmlns:xlink="http://www.w3.org/1999/xlink" xmlns="http://www.w3.org/2000/svg"><clipPath id="g28ec69e917_0_0.0"><path d="m0 0l384.0 0l0 384.0l-384.0 0l0 -384.0z" clip-rule="nonzero"/></clipPath><g clip-path="url(#g28ec69e917_0_0.0)"><path fill="#000000" fill-opacity="0.0" d="m0 0l384.0 0l0 384.0l-384.0 0z" fill-rule="evenodd"/><path fill="#000000" d="m0 64.00128l0 0c0 -35.34693 28.654348 -64.00128 64.00128 -64.00128l255.99744 0l0 0c16.974182 0 33.253174 6.742973 45.255737 18.74554c12.002563 12.002569 18.745544 28.281544 18.745544 45.25574l0 255.99744c0 35.346924 -28.654358 64.00128 -64.00128 64.00128l-255.99744 0c-35.34693 0 -64.00128 -28.654358 -64.00128 -64.00128z" fill-rule="evenodd"/><path fill="#666666" d="m29.34904 71.540634l324.69293 0l0 281.88977l-324.69293 0z" fill-rule="evenodd"/><path fill="#cc0000" d="m29.349092 41.43307l0 0c0 -8.114674 6.7051525 -14.692913 14.9763775 -14.692913l0 0c3.9719849 0 7.7812843 1.5479984 10.589901 4.3034534c2.8086128 2.755457 4.3864784 6.492655 4.3864784 10.38946l0 0c0 8.114674 -6.7051544 14.692913 -14.976379 14.692913l0 0c-8.271225 0 -14.9763775 -6.5782394 -14.9763775 -14.692913z" fill-rule="evenodd"/><path fill="#999999" d="m149.34862 34.31496l204.69292 0l0 14.236221l-204.69292 0z" fill-rule="evenodd"/><path fill="#1155cc" d="m69.34909 41.43307l0 0c0 -8.114674 6.7051544 -14.692913 14.976379 -14.692913l0 0c3.9719849 0 7.7812805 1.5479984 10.589897 4.3034534c2.8086166 2.755457 4.3864822 6.492655 4.3864822 10.38946l0 0c0 8.114674 -6.7051544 14.692913 -14.976379 14.692913l0 0c-8.271225 0 -14.976379 -6.5782394 -14.976379 -14.692913z" fill-rule="evenodd"/><path fill="#e69138" d="m109.34909 41.43307l0 0c0 -8.114674 6.7051544 -14.692913 14.976379 -14.692913l0 0c3.9719849 0 7.7812805 1.5479984 10.589905 4.3034534c2.808609 2.755457 4.3864746 6.492655 4.3864746 10.38946l0 0c0 8.114674 -6.7051544 14.692913 -14.976379 14.692913l0 0c-8.271225 0 -14.976379 -6.5782394 -14.976379 -14.692913z" fill-rule="evenodd"/><path fill="#000000" fill-opacity="0.0" d="m74.1579 110.951126l235.68503 0" fill-rule="evenodd"/><path stroke="#efefef" stroke-width="4.0" stroke-linejoin="round" stroke-linecap="butt" d="m74.1579 110.951126l235.68503 0" fill-rule="evenodd"/><path fill="#000000" fill-opacity="0.0" d="m73.85343 152.16635l235.68506 0" fill-rule="evenodd"/><path stroke="#6aa84f" stroke-width="4.0" stroke-linejoin="round" stroke-linecap="butt" d="m73.85343 152.16635l235.68506 0" fill-rule="evenodd"/><path fill="#000000" fill-opacity="0.0" d="m73.85343 195.064l235.68506 0" fill-rule="evenodd"/><path stroke="#ffffff" stroke-width="4.0" stroke-linejoin="round" stroke-linecap="butt" d="m73.85343 195.064l235.68506 0" fill-rule="evenodd"/><path fill="#000000" fill-opacity="0.0" d="m74.40987 195.0745l235.68504 0" fill-rule="evenodd"/><path stroke="#f1c232" stroke-width="4.0" stroke-linejoin="round" stroke-linecap="butt" d="m74.40987 195.0745l235.68504 0" fill-rule="evenodd"/><path fill="#000000" fill-opacity="0.0" d="m74.10541 236.28972l235.68503 0" fill-rule="evenodd"/><path stroke="#efefef" stroke-width="4.0" stroke-linejoin="round" stroke-linecap="butt" d="m74.10541 236.28972l235.68503 0" fill-rule="evenodd"/><path fill="#000000" fill-opacity="0.0" d="m74.1579 277.51544l235.68503 0" fill-rule="evenodd"/><path stroke="#999999" stroke-width="4.0" stroke-linejoin="round" stroke-linecap="butt" d="m74.1579 277.51544l235.68503 0" fill-rule="evenodd"/><path fill="#000000" fill-opacity="0.0" d="m73.85343 318.73065l235.68506 0" fill-rule="evenodd"/><path stroke="#999999" stroke-width="4.0" stroke-linejoin="round" stroke-linecap="butt" d="m73.85343 318.73065l235.68506 0" fill-rule="evenodd"/></g></svg>